<svg width="717" height="18" viewBox="0 0 717 18" fill="none" xmlns="http://www.w3.org/2000/svg">
<path d="M6.104 9.562H2.296V14H1.12V4.228H2.296V8.54H6.104V4.228H7.28V14H6.104V9.562ZM12.7345 14.168C12.2305 14.168 11.7732 14.0793 11.3625 13.902C10.9612 13.7247 10.6159 13.4727 10.3265 13.146C10.0465 12.81 9.83186 12.4133 9.68253 11.956C9.5332 11.4893 9.45853 10.9667 9.45853 10.388C9.45853 9.81867 9.5332 9.30067 9.68253 8.834C9.83186 8.36733 10.0465 7.97067 10.3265 7.644C10.6159 7.308 10.9612 7.05133 11.3625 6.874C11.7732 6.69667 12.2305 6.608 12.7345 6.608C13.2385 6.608 13.6912 6.69667 14.0925 6.874C14.5032 7.05133 14.8485 7.308 15.1285 7.644C15.4179 7.97067 15.6372 8.36733 15.7865 8.834C15.9359 9.30067 16.0105 9.81867 16.0105 10.388C16.0105 10.9667 15.9359 11.4893 15.7865 11.956C15.6372 12.4133 15.4179 12.81 15.1285 13.146C14.8485 13.4727 14.5032 13.7247 14.0925 13.902C13.6912 14.0793 13.2385 14.168 12.7345 14.168ZM12.7345 13.202C13.3599 13.202 13.8639 13.0153 14.2465 12.642C14.6292 12.2687 14.8205 11.69 14.8205 10.906V9.87C14.8205 9.086 14.6292 8.50733 14.2465 8.134C13.8639 7.76067 13.3599 7.574 12.7345 7.574C12.1092 7.574 11.6052 7.76067 11.2225 8.134C10.8399 8.50733 10.6485 9.086 10.6485 9.87V10.906C10.6485 11.69 10.8399 12.2687 11.2225 12.642C11.6052 13.0153 12.1092 13.202 12.7345 13.202ZM17.8251 14V6.776H18.8611V7.616H18.9171C19.0291 7.336 19.1877 7.098 19.3931 6.902C19.5984 6.706 19.9017 6.608 20.3031 6.608C20.7231 6.608 21.0357 6.71533 21.2411 6.93C21.4464 7.13533 21.5724 7.406 21.6191 7.742H21.6611C21.7917 7.41533 21.9784 7.14467 22.2211 6.93C22.4637 6.71533 22.7997 6.608 23.2291 6.608C23.8171 6.608 24.2091 6.81333 24.4051 7.224C24.6104 7.63467 24.7131 8.22267 24.7131 8.988V14H23.6771V9.17C23.6771 8.554 23.6117 8.12933 23.4811 7.896C23.3597 7.65333 23.1311 7.532 22.7951 7.532C22.4964 7.532 22.2537 7.63 22.0671 7.826C21.8804 8.01267 21.7871 8.302 21.7871 8.694V14H20.7511V9.17C20.7511 8.554 20.6857 8.12933 20.5551 7.896C20.4337 7.65333 20.2097 7.532 19.8831 7.532C19.5844 7.532 19.3371 7.63 19.1411 7.826C18.9544 8.01267 18.8611 8.302 18.8611 8.694V14H17.8251ZM29.9296 14.168C29.4069 14.168 28.9356 14.0793 28.5156 13.902C28.1049 13.7247 27.7503 13.4727 27.4516 13.146C27.1623 12.81 26.9383 12.4133 26.7796 11.956C26.6209 11.4893 26.5416 10.9713 26.5416 10.402C26.5416 9.82333 26.6209 9.30067 26.7796 8.834C26.9476 8.36733 27.1763 7.97067 27.4656 7.644C27.7549 7.308 28.1003 7.05133 28.5016 6.874C28.9123 6.69667 29.3649 6.608 29.8596 6.608C30.3449 6.608 30.7836 6.69667 31.1756 6.874C31.5769 7.05133 31.9176 7.29867 32.1976 7.616C32.4776 7.924 32.6923 8.29267 32.8416 8.722C32.9909 9.15133 33.0656 9.62267 33.0656 10.136V10.668H27.7176V11.004C27.7176 11.3213 27.7689 11.6153 27.8716 11.886C27.9743 12.1567 28.1189 12.39 28.3056 12.586C28.5016 12.782 28.7349 12.936 29.0056 13.048C29.2856 13.1507 29.5936 13.202 29.9296 13.202C30.4149 13.202 30.8349 13.09 31.1896 12.866C31.5443 12.642 31.8149 12.334 32.0016 11.942L32.8276 12.502C32.6129 12.9873 32.2536 13.3887 31.7496 13.706C31.2549 14.014 30.6483 14.168 29.9296 14.168ZM29.8596 7.532C29.5516 7.532 29.2669 7.588 29.0056 7.7C28.7443 7.812 28.5156 7.966 28.3196 8.162C28.1329 8.358 27.9836 8.59133 27.8716 8.862C27.7689 9.12333 27.7176 9.41267 27.7176 9.73V9.828H31.8616V9.674C31.8616 9.35667 31.8103 9.06733 31.7076 8.806C31.6143 8.54467 31.4789 8.32067 31.3016 8.134C31.1336 7.938 30.9236 7.78867 30.6716 7.686C30.4289 7.58333 30.1583 7.532 29.8596 7.532Z" fill="#9C9C9C"/>
<path d="M108.522 14.168C107.327 14.168 106.436 13.734 105.848 12.866C105.269 11.998 104.98 10.7473 104.98 9.114C104.98 7.48067 105.269 6.23 105.848 5.362C106.436 4.494 107.327 4.06 108.522 4.06C108.97 4.06 109.357 4.12067 109.684 4.242C110.011 4.36333 110.291 4.52667 110.524 4.732C110.757 4.93733 110.953 5.17067 111.112 5.432C111.271 5.684 111.411 5.94067 111.532 6.202L110.524 6.664C110.44 6.44933 110.342 6.24867 110.23 6.062C110.118 5.866 109.983 5.698 109.824 5.558C109.675 5.40867 109.493 5.292 109.278 5.208C109.073 5.124 108.821 5.082 108.522 5.082C107.747 5.082 107.169 5.376 106.786 5.964C106.413 6.552 106.226 7.336 106.226 8.316V9.912C106.226 10.892 106.413 11.676 106.786 12.264C107.169 12.852 107.747 13.146 108.522 13.146C108.821 13.146 109.073 13.104 109.278 13.02C109.493 12.936 109.675 12.824 109.824 12.684C109.983 12.5347 110.118 12.3667 110.23 12.18C110.342 11.984 110.44 11.7787 110.524 11.564L111.532 12.026C111.411 12.2967 111.271 12.558 111.112 12.81C110.953 13.062 110.757 13.2907 110.524 13.496C110.291 13.7013 110.011 13.8647 109.684 13.986C109.357 14.1073 108.97 14.168 108.522 14.168ZM119.465 14C119.026 14 118.713 13.888 118.527 13.664C118.34 13.44 118.223 13.16 118.177 12.824H118.107C117.948 13.244 117.691 13.5753 117.337 13.818C116.991 14.0513 116.525 14.168 115.937 14.168C115.181 14.168 114.579 13.972 114.131 13.58C113.683 13.188 113.459 12.6513 113.459 11.97C113.459 11.298 113.701 10.78 114.187 10.416C114.681 10.052 115.475 9.87 116.567 9.87H118.107V9.156C118.107 8.624 117.957 8.22733 117.659 7.966C117.36 7.69533 116.935 7.56 116.385 7.56C115.899 7.56 115.503 7.658 115.195 7.854C114.887 8.04067 114.639 8.29733 114.453 8.624L113.697 8.064C113.79 7.87733 113.916 7.69533 114.075 7.518C114.233 7.34067 114.429 7.18667 114.663 7.056C114.896 6.916 115.162 6.80867 115.461 6.734C115.759 6.65 116.091 6.608 116.455 6.608C117.304 6.608 117.976 6.82267 118.471 7.252C118.975 7.68133 119.227 8.27867 119.227 9.044V13.02H120.235V14H119.465ZM116.133 13.23C116.422 13.23 116.683 13.1973 116.917 13.132C117.159 13.0573 117.369 12.964 117.547 12.852C117.724 12.7307 117.859 12.5907 117.953 12.432C118.055 12.264 118.107 12.0867 118.107 11.9V10.71H116.567C115.895 10.71 115.405 10.8033 115.097 10.99C114.789 11.1767 114.635 11.4473 114.635 11.802V12.096C114.635 12.4693 114.765 12.754 115.027 12.95C115.297 13.1367 115.666 13.23 116.133 13.23ZM125.353 14.168C124.597 14.168 123.944 14.042 123.393 13.79C122.852 13.5287 122.39 13.1833 122.007 12.754L122.763 12.096C123.108 12.46 123.486 12.74 123.897 12.936C124.308 13.132 124.802 13.23 125.381 13.23C125.941 13.23 126.398 13.132 126.753 12.936C127.117 12.7307 127.299 12.4133 127.299 11.984C127.299 11.7973 127.262 11.6433 127.187 11.522C127.122 11.3913 127.028 11.2887 126.907 11.214C126.786 11.1393 126.65 11.0833 126.501 11.046C126.352 10.9993 126.193 10.962 126.025 10.934L124.891 10.766C124.639 10.7287 124.364 10.6773 124.065 10.612C123.776 10.5467 123.51 10.444 123.267 10.304C123.024 10.1547 122.819 9.95867 122.651 9.716C122.492 9.47333 122.413 9.156 122.413 8.764C122.413 8.4 122.483 8.08733 122.623 7.826C122.772 7.55533 122.978 7.33133 123.239 7.154C123.5 6.96733 123.808 6.832 124.163 6.748C124.518 6.65467 124.905 6.608 125.325 6.608C125.978 6.608 126.543 6.71067 127.019 6.916C127.504 7.12133 127.92 7.406 128.265 7.77L127.537 8.456C127.453 8.35333 127.346 8.25067 127.215 8.148C127.094 8.036 126.94 7.938 126.753 7.854C126.576 7.76067 126.366 7.686 126.123 7.63C125.88 7.574 125.6 7.546 125.283 7.546C124.714 7.546 124.275 7.644 123.967 7.84C123.668 8.036 123.519 8.32067 123.519 8.694C123.519 8.88067 123.552 9.03933 123.617 9.17C123.692 9.29133 123.79 9.38933 123.911 9.464C124.032 9.53867 124.168 9.59933 124.317 9.646C124.476 9.68333 124.634 9.716 124.793 9.744L125.927 9.912C126.188 9.94933 126.464 10.0007 126.753 10.066C127.042 10.1313 127.308 10.2387 127.551 10.388C127.794 10.528 127.994 10.7193 128.153 10.962C128.321 11.2047 128.405 11.522 128.405 11.914C128.405 12.6327 128.125 13.188 127.565 13.58C127.014 13.972 126.277 14.168 125.353 14.168ZM133.93 14.168C133.407 14.168 132.936 14.0793 132.516 13.902C132.105 13.7247 131.75 13.4727 131.452 13.146C131.162 12.81 130.938 12.4133 130.78 11.956C130.621 11.4893 130.542 10.9713 130.542 10.402C130.542 9.82333 130.621 9.30067 130.78 8.834C130.948 8.36733 131.176 7.97067 131.466 7.644C131.755 7.308 132.1 7.05133 132.502 6.874C132.912 6.69667 133.365 6.608 133.86 6.608C134.345 6.608 134.784 6.69667 135.176 6.874C135.577 7.05133 135.918 7.29867 136.198 7.616C136.478 7.924 136.692 8.29267 136.842 8.722C136.991 9.15133 137.066 9.62267 137.066 10.136V10.668H131.718V11.004C131.718 11.3213 131.769 11.6153 131.872 11.886C131.974 12.1567 132.119 12.39 132.306 12.586C132.502 12.782 132.735 12.936 133.006 13.048C133.286 13.1507 133.594 13.202 133.93 13.202C134.415 13.202 134.835 13.09 135.19 12.866C135.544 12.642 135.815 12.334 136.002 11.942L136.828 12.502C136.613 12.9873 136.254 13.3887 135.75 13.706C135.255 14.014 134.648 14.168 133.93 14.168ZM133.86 7.532C133.552 7.532 133.267 7.588 133.006 7.7C132.744 7.812 132.516 7.966 132.32 8.162C132.133 8.358 131.984 8.59133 131.872 8.862C131.769 9.12333 131.718 9.41267 131.718 9.73V9.828H135.862V9.674C135.862 9.35667 135.81 9.06733 135.708 8.806C135.614 8.54467 135.479 8.32067 135.302 8.134C135.134 7.938 134.924 7.78867 134.672 7.686C134.429 7.58333 134.158 7.532 133.86 7.532ZM150.845 14.168C149.967 14.168 149.249 14.0093 148.689 13.692C148.129 13.3653 147.667 12.95 147.303 12.446L148.157 11.746C148.539 12.222 148.941 12.5767 149.361 12.81C149.79 13.0433 150.299 13.16 150.887 13.16C151.596 13.16 152.137 12.9967 152.511 12.67C152.884 12.3433 153.071 11.886 153.071 11.298C153.071 10.822 152.935 10.4533 152.665 10.192C152.394 9.92133 151.923 9.73 151.251 9.618L150.159 9.436C149.683 9.352 149.281 9.226 148.955 9.058C148.637 8.89 148.381 8.68933 148.185 8.456C147.989 8.21333 147.849 7.952 147.765 7.672C147.681 7.38267 147.639 7.084 147.639 6.776C147.639 5.88 147.933 5.20333 148.521 4.746C149.109 4.28867 149.902 4.06 150.901 4.06C151.685 4.06 152.343 4.19067 152.875 4.452C153.416 4.71333 153.85 5.082 154.177 5.558L153.351 6.272C153.08 5.91733 152.753 5.628 152.371 5.404C151.988 5.18 151.493 5.068 150.887 5.068C150.224 5.068 149.715 5.208 149.361 5.488C149.006 5.768 148.829 6.188 148.829 6.748C148.829 7.18667 148.959 7.546 149.221 7.826C149.491 8.09667 149.972 8.29267 150.663 8.414L151.713 8.596C152.189 8.68 152.59 8.806 152.917 8.974C153.243 9.142 153.505 9.34267 153.701 9.576C153.906 9.80933 154.051 10.0707 154.135 10.36C154.219 10.6493 154.261 10.9527 154.261 11.27C154.261 12.1753 153.962 12.8847 153.365 13.398C152.777 13.9113 151.937 14.168 150.845 14.168ZM159.757 14C159.207 14 158.801 13.846 158.539 13.538C158.287 13.23 158.161 12.8333 158.161 12.348V7.728H155.753V6.776H157.545C157.788 6.776 157.956 6.72933 158.049 6.636C158.152 6.53333 158.203 6.36067 158.203 6.118V4.228H159.281V6.776H162.571V7.728H159.281V13.048H162.571V14H159.757ZM169.65 12.824H169.594C169.519 13.0013 169.426 13.174 169.314 13.342C169.202 13.5007 169.062 13.6407 168.894 13.762C168.735 13.8833 168.544 13.9813 168.32 14.056C168.096 14.1307 167.834 14.168 167.536 14.168C166.78 14.168 166.173 13.93 165.716 13.454C165.258 12.9687 165.03 12.2873 165.03 11.41V6.776H166.15V11.214C166.15 11.8767 166.294 12.3713 166.584 12.698C166.873 13.0153 167.298 13.174 167.858 13.174C168.082 13.174 168.301 13.146 168.516 13.09C168.73 13.034 168.922 12.95 169.09 12.838C169.258 12.726 169.393 12.586 169.496 12.418C169.598 12.2407 169.65 12.0307 169.65 11.788V6.776H170.77V14H169.65V12.824ZM178.226 12.824H178.17C177.704 13.72 176.962 14.168 175.944 14.168C175.058 14.168 174.362 13.8367 173.858 13.174C173.364 12.5113 173.116 11.5827 173.116 10.388C173.116 9.19333 173.364 8.26467 173.858 7.602C174.362 6.93933 175.058 6.608 175.944 6.608C176.962 6.608 177.704 7.056 178.17 7.952H178.226V3.64H179.346V14H178.226V12.824ZM176.378 13.174C176.63 13.174 176.868 13.1413 177.092 13.076C177.316 13.0107 177.512 12.9173 177.68 12.796C177.848 12.6653 177.979 12.5113 178.072 12.334C178.175 12.1473 178.226 11.9327 178.226 11.69V9.086C178.226 8.84333 178.175 8.63333 178.072 8.456C177.979 8.26933 177.848 8.11533 177.68 7.994C177.512 7.86333 177.316 7.76533 177.092 7.7C176.868 7.63467 176.63 7.602 176.378 7.602C175.725 7.602 175.216 7.80267 174.852 8.204C174.498 8.596 174.32 9.11867 174.32 9.772V11.004C174.32 11.6573 174.498 12.1847 174.852 12.586C175.216 12.978 175.725 13.174 176.378 13.174ZM185.459 5.18C185.132 5.18 184.903 5.11467 184.773 4.984C184.642 4.844 184.577 4.67133 184.577 4.466V4.242C184.577 4.03667 184.642 3.86867 184.773 3.738C184.903 3.598 185.132 3.528 185.459 3.528C185.785 3.528 186.014 3.598 186.145 3.738C186.275 3.86867 186.341 4.03667 186.341 4.242V4.466C186.341 4.67133 186.275 4.844 186.145 4.984C186.014 5.11467 185.785 5.18 185.459 5.18ZM182.295 13.048H184.899V7.728H182.295V6.776H186.019V13.048H188.455V14H182.295V13.048ZM193.671 14.168C193.149 14.168 192.677 14.0793 192.257 13.902C191.847 13.7247 191.492 13.4727 191.193 13.146C190.904 12.81 190.68 12.4133 190.521 11.956C190.363 11.4893 190.283 10.9713 190.283 10.402C190.283 9.82333 190.363 9.30067 190.521 8.834C190.689 8.36733 190.918 7.97067 191.207 7.644C191.497 7.308 191.842 7.05133 192.243 6.874C192.654 6.69667 193.107 6.608 193.601 6.608C194.087 6.608 194.525 6.69667 194.917 6.874C195.319 7.05133 195.659 7.29867 195.939 7.616C196.219 7.924 196.434 8.29267 196.583 8.722C196.733 9.15133 196.807 9.62267 196.807 10.136V10.668H191.459V11.004C191.459 11.3213 191.511 11.6153 191.613 11.886C191.716 12.1567 191.861 12.39 192.047 12.586C192.243 12.782 192.477 12.936 192.747 13.048C193.027 13.1507 193.335 13.202 193.671 13.202C194.157 13.202 194.577 13.09 194.931 12.866C195.286 12.642 195.557 12.334 195.743 11.942L196.569 12.502C196.355 12.9873 195.995 13.3887 195.491 13.706C194.997 14.014 194.39 14.168 193.671 14.168ZM193.601 7.532C193.293 7.532 193.009 7.588 192.747 7.7C192.486 7.812 192.257 7.966 192.061 8.162C191.875 8.358 191.725 8.59133 191.613 8.862C191.511 9.12333 191.459 9.41267 191.459 9.73V9.828H195.603V9.674C195.603 9.35667 195.552 9.06733 195.449 8.806C195.356 8.54467 195.221 8.32067 195.043 8.134C194.875 7.938 194.665 7.78867 194.413 7.686C194.171 7.58333 193.9 7.532 193.601 7.532ZM202.164 14.168C201.408 14.168 200.755 14.042 200.204 13.79C199.663 13.5287 199.201 13.1833 198.818 12.754L199.574 12.096C199.919 12.46 200.297 12.74 200.708 12.936C201.119 13.132 201.613 13.23 202.192 13.23C202.752 13.23 203.209 13.132 203.564 12.936C203.928 12.7307 204.11 12.4133 204.11 11.984C204.11 11.7973 204.073 11.6433 203.998 11.522C203.933 11.3913 203.839 11.2887 203.718 11.214C203.597 11.1393 203.461 11.0833 203.312 11.046C203.163 10.9993 203.004 10.962 202.836 10.934L201.702 10.766C201.45 10.7287 201.175 10.6773 200.876 10.612C200.587 10.5467 200.321 10.444 200.078 10.304C199.835 10.1547 199.63 9.95867 199.462 9.716C199.303 9.47333 199.224 9.156 199.224 8.764C199.224 8.4 199.294 8.08733 199.434 7.826C199.583 7.55533 199.789 7.33133 200.05 7.154C200.311 6.96733 200.619 6.832 200.974 6.748C201.329 6.65467 201.716 6.608 202.136 6.608C202.789 6.608 203.354 6.71067 203.83 6.916C204.315 7.12133 204.731 7.406 205.076 7.77L204.348 8.456C204.264 8.35333 204.157 8.25067 204.026 8.148C203.905 8.036 203.751 7.938 203.564 7.854C203.387 7.76067 203.177 7.686 202.934 7.63C202.691 7.574 202.411 7.546 202.094 7.546C201.525 7.546 201.086 7.644 200.778 7.84C200.479 8.036 200.33 8.32067 200.33 8.694C200.33 8.88067 200.363 9.03933 200.428 9.17C200.503 9.29133 200.601 9.38933 200.722 9.464C200.843 9.53867 200.979 9.59933 201.128 9.646C201.287 9.68333 201.445 9.716 201.604 9.744L202.738 9.912C202.999 9.94933 203.275 10.0007 203.564 10.066C203.853 10.1313 204.119 10.2387 204.362 10.388C204.605 10.528 204.805 10.7193 204.964 10.962C205.132 11.2047 205.216 11.522 205.216 11.914C205.216 12.6327 204.936 13.188 204.376 13.58C203.825 13.972 203.088 14.168 202.164 14.168Z" fill="#9C9C9C"/>
<path d="M281.788 5.25V14H280.612V5.25H277.35V4.228H285.05V5.25H281.788ZM289.861 14.168C289.338 14.168 288.867 14.0793 288.447 13.902C288.036 13.7247 287.681 13.4727 287.383 13.146C287.093 12.81 286.869 12.4133 286.711 11.956C286.552 11.4893 286.473 10.9713 286.473 10.402C286.473 9.82333 286.552 9.30067 286.711 8.834C286.879 8.36733 287.107 7.97067 287.397 7.644C287.686 7.308 288.031 7.05133 288.433 6.874C288.843 6.69667 289.296 6.608 289.791 6.608C290.276 6.608 290.715 6.69667 291.107 6.874C291.508 7.05133 291.849 7.29867 292.129 7.616C292.409 7.924 292.623 8.29267 292.773 8.722C292.922 9.15133 292.997 9.62267 292.997 10.136V10.668H287.649V11.004C287.649 11.3213 287.7 11.6153 287.803 11.886C287.905 12.1567 288.05 12.39 288.237 12.586C288.433 12.782 288.666 12.936 288.937 13.048C289.217 13.1507 289.525 13.202 289.861 13.202C290.346 13.202 290.766 13.09 291.121 12.866C291.475 12.642 291.746 12.334 291.933 11.942L292.759 12.502C292.544 12.9873 292.185 13.3887 291.681 13.706C291.186 14.014 290.579 14.168 289.861 14.168ZM289.791 7.532C289.483 7.532 289.198 7.588 288.937 7.7C288.675 7.812 288.447 7.966 288.251 8.162C288.064 8.358 287.915 8.59133 287.803 8.862C287.7 9.12333 287.649 9.41267 287.649 9.73V9.828H291.793V9.674C291.793 9.35667 291.741 9.06733 291.639 8.806C291.545 8.54467 291.41 8.32067 291.233 8.134C291.065 7.938 290.855 7.78867 290.603 7.686C290.36 7.58333 290.089 7.532 289.791 7.532ZM298.353 14.168C297.597 14.168 296.944 14.042 296.393 13.79C295.852 13.5287 295.39 13.1833 295.007 12.754L295.763 12.096C296.108 12.46 296.486 12.74 296.897 12.936C297.308 13.132 297.802 13.23 298.381 13.23C298.941 13.23 299.398 13.132 299.753 12.936C300.117 12.7307 300.299 12.4133 300.299 11.984C300.299 11.7973 300.262 11.6433 300.187 11.522C300.122 11.3913 300.028 11.2887 299.907 11.214C299.786 11.1393 299.65 11.0833 299.501 11.046C299.352 10.9993 299.193 10.962 299.025 10.934L297.891 10.766C297.639 10.7287 297.364 10.6773 297.065 10.612C296.776 10.5467 296.51 10.444 296.267 10.304C296.024 10.1547 295.819 9.95867 295.651 9.716C295.492 9.47333 295.413 9.156 295.413 8.764C295.413 8.4 295.483 8.08733 295.623 7.826C295.772 7.55533 295.978 7.33133 296.239 7.154C296.5 6.96733 296.808 6.832 297.163 6.748C297.518 6.65467 297.905 6.608 298.325 6.608C298.978 6.608 299.543 6.71067 300.019 6.916C300.504 7.12133 300.92 7.406 301.265 7.77L300.537 8.456C300.453 8.35333 300.346 8.25067 300.215 8.148C300.094 8.036 299.94 7.938 299.753 7.854C299.576 7.76067 299.366 7.686 299.123 7.63C298.88 7.574 298.6 7.546 298.283 7.546C297.714 7.546 297.275 7.644 296.967 7.84C296.668 8.036 296.519 8.32067 296.519 8.694C296.519 8.88067 296.552 9.03933 296.617 9.17C296.692 9.29133 296.79 9.38933 296.911 9.464C297.032 9.53867 297.168 9.59933 297.317 9.646C297.476 9.68333 297.634 9.716 297.793 9.744L298.927 9.912C299.188 9.94933 299.464 10.0007 299.753 10.066C300.042 10.1313 300.308 10.2387 300.551 10.388C300.794 10.528 300.994 10.7193 301.153 10.962C301.321 11.2047 301.405 11.522 301.405 11.914C301.405 12.6327 301.125 13.188 300.565 13.58C300.014 13.972 299.277 14.168 298.353 14.168ZM307.154 14C306.603 14 306.197 13.846 305.936 13.538C305.684 13.23 305.558 12.8333 305.558 12.348V7.728H303.15V6.776H304.942C305.184 6.776 305.352 6.72933 305.446 6.636C305.548 6.53333 305.6 6.36067 305.6 6.118V4.228H306.678V6.776H309.968V7.728H306.678V13.048H309.968V14H307.154ZM315.786 5.18C315.459 5.18 315.231 5.11467 315.1 4.984C314.969 4.844 314.904 4.67133 314.904 4.466V4.242C314.904 4.03667 314.969 3.86867 315.1 3.738C315.231 3.598 315.459 3.528 315.786 3.528C316.113 3.528 316.341 3.598 316.472 3.738C316.603 3.86867 316.668 4.03667 316.668 4.242V4.466C316.668 4.67133 316.603 4.844 316.472 4.984C316.341 5.11467 316.113 5.18 315.786 5.18ZM312.622 13.048H315.226V7.728H312.622V6.776H316.346V13.048H318.782V14H312.622V13.048ZM320.429 14V6.776H321.465V7.616H321.521C321.633 7.336 321.791 7.098 321.997 6.902C322.202 6.706 322.505 6.608 322.907 6.608C323.327 6.608 323.639 6.71533 323.845 6.93C324.05 7.13533 324.176 7.406 324.223 7.742H324.265C324.395 7.41533 324.582 7.14467 324.825 6.93C325.067 6.71533 325.403 6.608 325.833 6.608C326.421 6.608 326.813 6.81333 327.009 7.224C327.214 7.63467 327.317 8.22267 327.317 8.988V14H326.281V9.17C326.281 8.554 326.215 8.12933 326.085 7.896C325.963 7.65333 325.735 7.532 325.399 7.532C325.1 7.532 324.857 7.63 324.671 7.826C324.484 8.01267 324.391 8.302 324.391 8.694V14H323.355V9.17C323.355 8.554 323.289 8.12933 323.159 7.896C323.037 7.65333 322.813 7.532 322.487 7.532C322.188 7.532 321.941 7.63 321.745 7.826C321.558 8.01267 321.465 8.302 321.465 8.694V14H320.429ZM332.407 14.168C331.903 14.168 331.446 14.0793 331.035 13.902C330.634 13.7247 330.289 13.4727 329.999 13.146C329.719 12.81 329.505 12.4133 329.355 11.956C329.206 11.4893 329.131 10.9667 329.131 10.388C329.131 9.81867 329.206 9.30067 329.355 8.834C329.505 8.36733 329.719 7.97067 329.999 7.644C330.289 7.308 330.634 7.05133 331.035 6.874C331.446 6.69667 331.903 6.608 332.407 6.608C332.911 6.608 333.364 6.69667 333.765 6.874C334.176 7.05133 334.521 7.308 334.801 7.644C335.091 7.97067 335.31 8.36733 335.459 8.834C335.609 9.30067 335.683 9.81867 335.683 10.388C335.683 10.9667 335.609 11.4893 335.459 11.956C335.31 12.4133 335.091 12.81 334.801 13.146C334.521 13.4727 334.176 13.7247 333.765 13.902C333.364 14.0793 332.911 14.168 332.407 14.168ZM332.407 13.202C333.033 13.202 333.537 13.0153 333.919 12.642C334.302 12.2687 334.493 11.69 334.493 10.906V9.87C334.493 9.086 334.302 8.50733 333.919 8.134C333.537 7.76067 333.033 7.574 332.407 7.574C331.782 7.574 331.278 7.76067 330.895 8.134C330.513 8.50733 330.321 9.086 330.321 9.87V10.906C330.321 11.69 330.513 12.2687 330.895 12.642C331.278 13.0153 331.782 13.202 332.407 13.202ZM338.114 14V6.776H339.234V7.952H339.29C339.364 7.77467 339.458 7.60667 339.57 7.448C339.682 7.28 339.817 7.13533 339.976 7.014C340.144 6.89267 340.34 6.79467 340.564 6.72C340.788 6.64533 341.049 6.608 341.348 6.608C342.104 6.608 342.71 6.85067 343.168 7.336C343.625 7.812 343.854 8.48867 343.854 9.366V14H342.734V9.562C342.734 8.89933 342.589 8.40933 342.3 8.092C342.01 7.76533 341.586 7.602 341.026 7.602C340.802 7.602 340.582 7.63 340.368 7.686C340.153 7.742 339.962 7.826 339.794 7.938C339.626 8.05 339.49 8.19467 339.388 8.372C339.285 8.54933 339.234 8.75467 339.234 8.988V14H338.114ZM349.924 5.18C349.598 5.18 349.369 5.11467 349.238 4.984C349.108 4.844 349.042 4.67133 349.042 4.466V4.242C349.042 4.03667 349.108 3.86867 349.238 3.738C349.369 3.598 349.598 3.528 349.924 3.528C350.251 3.528 350.48 3.598 350.61 3.738C350.741 3.86867 350.806 4.03667 350.806 4.242V4.466C350.806 4.67133 350.741 4.844 350.61 4.984C350.48 5.11467 350.251 5.18 349.924 5.18ZM346.76 13.048H349.364V7.728H346.76V6.776H350.484V13.048H352.92V14H346.76V13.048ZM360.741 14C360.302 14 359.989 13.888 359.803 13.664C359.616 13.44 359.499 13.16 359.453 12.824H359.383C359.224 13.244 358.967 13.5753 358.613 13.818C358.267 14.0513 357.801 14.168 357.213 14.168C356.457 14.168 355.855 13.972 355.407 13.58C354.959 13.188 354.735 12.6513 354.735 11.97C354.735 11.298 354.977 10.78 355.463 10.416C355.957 10.052 356.751 9.87 357.843 9.87H359.383V9.156C359.383 8.624 359.233 8.22733 358.935 7.966C358.636 7.69533 358.211 7.56 357.661 7.56C357.175 7.56 356.779 7.658 356.471 7.854C356.163 8.04067 355.915 8.29733 355.729 8.624L354.973 8.064C355.066 7.87733 355.192 7.69533 355.351 7.518C355.509 7.34067 355.705 7.18667 355.939 7.056C356.172 6.916 356.438 6.80867 356.737 6.734C357.035 6.65 357.367 6.608 357.731 6.608C358.58 6.608 359.252 6.82267 359.747 7.252C360.251 7.68133 360.503 8.27867 360.503 9.044V13.02H361.511V14H360.741ZM357.409 13.23C357.698 13.23 357.959 13.1973 358.193 13.132C358.435 13.0573 358.645 12.964 358.823 12.852C359 12.7307 359.135 12.5907 359.229 12.432C359.331 12.264 359.383 12.0867 359.383 11.9V10.71H357.843C357.171 10.71 356.681 10.8033 356.373 10.99C356.065 11.1767 355.911 11.4473 355.911 11.802V12.096C355.911 12.4693 356.041 12.754 356.303 12.95C356.573 13.1367 356.942 13.23 357.409 13.23ZM363.465 13.048H365.985V4.592H363.465V3.64H367.105V13.048H369.625V14H363.465V13.048ZM375.164 14.168C374.408 14.168 373.755 14.042 373.204 13.79C372.663 13.5287 372.201 13.1833 371.818 12.754L372.574 12.096C372.919 12.46 373.297 12.74 373.708 12.936C374.119 13.132 374.613 13.23 375.192 13.23C375.752 13.23 376.209 13.132 376.564 12.936C376.928 12.7307 377.11 12.4133 377.11 11.984C377.11 11.7973 377.073 11.6433 376.998 11.522C376.933 11.3913 376.839 11.2887 376.718 11.214C376.597 11.1393 376.461 11.0833 376.312 11.046C376.163 10.9993 376.004 10.962 375.836 10.934L374.702 10.766C374.45 10.7287 374.175 10.6773 373.876 10.612C373.587 10.5467 373.321 10.444 373.078 10.304C372.835 10.1547 372.63 9.95867 372.462 9.716C372.303 9.47333 372.224 9.156 372.224 8.764C372.224 8.4 372.294 8.08733 372.434 7.826C372.583 7.55533 372.789 7.33133 373.05 7.154C373.311 6.96733 373.619 6.832 373.974 6.748C374.329 6.65467 374.716 6.608 375.136 6.608C375.789 6.608 376.354 6.71067 376.83 6.916C377.315 7.12133 377.731 7.406 378.076 7.77L377.348 8.456C377.264 8.35333 377.157 8.25067 377.026 8.148C376.905 8.036 376.751 7.938 376.564 7.854C376.387 7.76067 376.177 7.686 375.934 7.63C375.691 7.574 375.411 7.546 375.094 7.546C374.525 7.546 374.086 7.644 373.778 7.84C373.479 8.036 373.33 8.32067 373.33 8.694C373.33 8.88067 373.363 9.03933 373.428 9.17C373.503 9.29133 373.601 9.38933 373.722 9.464C373.843 9.53867 373.979 9.59933 374.128 9.646C374.287 9.68333 374.445 9.716 374.604 9.744L375.738 9.912C375.999 9.94933 376.275 10.0007 376.564 10.066C376.853 10.1313 377.119 10.2387 377.362 10.388C377.605 10.528 377.805 10.7193 377.964 10.962C378.132 11.2047 378.216 11.522 378.216 11.914C378.216 12.6327 377.936 13.188 377.376 13.58C376.825 13.972 376.088 14.168 375.164 14.168Z" fill="#9C9C9C"/>
<path d="M452.436 14H451.26V4.228H454.816C455.721 4.228 456.412 4.47533 456.888 4.97C457.364 5.46467 457.602 6.15533 457.602 7.042C457.602 7.83533 457.397 8.47 456.986 8.946C456.575 9.422 455.978 9.69733 455.194 9.772L457.686 14H456.37L453.99 9.828H452.436V14ZM454.788 8.834C455.283 8.834 455.665 8.71267 455.936 8.47C456.216 8.218 456.356 7.86333 456.356 7.406V6.678C456.356 6.22067 456.216 5.87067 455.936 5.628C455.665 5.376 455.283 5.25 454.788 5.25H452.436V8.834H454.788ZM462.861 14.168C462.338 14.168 461.867 14.0793 461.447 13.902C461.036 13.7247 460.681 13.4727 460.383 13.146C460.093 12.81 459.869 12.4133 459.711 11.956C459.552 11.4893 459.473 10.9713 459.473 10.402C459.473 9.82333 459.552 9.30067 459.711 8.834C459.879 8.36733 460.107 7.97067 460.397 7.644C460.686 7.308 461.031 7.05133 461.433 6.874C461.843 6.69667 462.296 6.608 462.791 6.608C463.276 6.608 463.715 6.69667 464.107 6.874C464.508 7.05133 464.849 7.29867 465.129 7.616C465.409 7.924 465.623 8.29267 465.773 8.722C465.922 9.15133 465.997 9.62267 465.997 10.136V10.668H460.649V11.004C460.649 11.3213 460.7 11.6153 460.803 11.886C460.905 12.1567 461.05 12.39 461.237 12.586C461.433 12.782 461.666 12.936 461.937 13.048C462.217 13.1507 462.525 13.202 462.861 13.202C463.346 13.202 463.766 13.09 464.121 12.866C464.475 12.642 464.746 12.334 464.933 11.942L465.759 12.502C465.544 12.9873 465.185 13.3887 464.681 13.706C464.186 14.014 463.579 14.168 462.861 14.168ZM462.791 7.532C462.483 7.532 462.198 7.588 461.937 7.7C461.675 7.812 461.447 7.966 461.251 8.162C461.064 8.358 460.915 8.59133 460.803 8.862C460.7 9.12333 460.649 9.41267 460.649 9.73V9.828H464.793V9.674C464.793 9.35667 464.741 9.06733 464.639 8.806C464.545 8.54467 464.41 8.32067 464.233 8.134C464.065 7.938 463.855 7.78867 463.603 7.686C463.36 7.58333 463.089 7.532 462.791 7.532ZM471.521 14.168C470.998 14.168 470.532 14.0793 470.121 13.902C469.72 13.7153 469.379 13.4587 469.099 13.132C468.819 12.8053 468.604 12.4087 468.455 11.942C468.315 11.4753 468.245 10.9573 468.245 10.388C468.245 9.81867 468.32 9.30067 468.469 8.834C468.618 8.36733 468.833 7.97067 469.113 7.644C469.393 7.308 469.734 7.05133 470.135 6.874C470.536 6.69667 470.994 6.608 471.507 6.608C472.207 6.608 472.776 6.762 473.215 7.07C473.654 7.378 473.976 7.77933 474.181 8.274L473.285 8.75C473.154 8.37667 472.935 8.08733 472.627 7.882C472.328 7.67667 471.955 7.574 471.507 7.574C471.18 7.574 470.886 7.63 470.625 7.742C470.373 7.84467 470.158 7.994 469.981 8.19C469.804 8.386 469.668 8.61933 469.575 8.89C469.491 9.16067 469.449 9.45467 469.449 9.772V11.004C469.449 11.3213 469.491 11.6153 469.575 11.886C469.668 12.1567 469.804 12.39 469.981 12.586C470.158 12.782 470.378 12.936 470.639 13.048C470.9 13.1507 471.199 13.202 471.535 13.202C472.02 13.202 472.422 13.09 472.739 12.866C473.056 12.642 473.308 12.334 473.495 11.942L474.293 12.488C474.078 12.9733 473.742 13.3747 473.285 13.692C472.837 14.0093 472.249 14.168 471.521 14.168ZM479.93 14.168C479.407 14.168 478.936 14.0793 478.516 13.902C478.105 13.7247 477.75 13.4727 477.452 13.146C477.162 12.81 476.938 12.4133 476.78 11.956C476.621 11.4893 476.542 10.9713 476.542 10.402C476.542 9.82333 476.621 9.30067 476.78 8.834C476.948 8.36733 477.176 7.97067 477.466 7.644C477.755 7.308 478.1 7.05133 478.502 6.874C478.912 6.69667 479.365 6.608 479.86 6.608C480.345 6.608 480.784 6.69667 481.176 6.874C481.577 7.05133 481.918 7.29867 482.198 7.616C482.478 7.924 482.692 8.29267 482.842 8.722C482.991 9.15133 483.066 9.62267 483.066 10.136V10.668H477.718V11.004C477.718 11.3213 477.769 11.6153 477.872 11.886C477.974 12.1567 478.119 12.39 478.306 12.586C478.502 12.782 478.735 12.936 479.006 13.048C479.286 13.1507 479.594 13.202 479.93 13.202C480.415 13.202 480.835 13.09 481.19 12.866C481.544 12.642 481.815 12.334 482.002 11.942L482.828 12.502C482.613 12.9873 482.254 13.3887 481.75 13.706C481.255 14.014 480.648 14.168 479.93 14.168ZM479.86 7.532C479.552 7.532 479.267 7.588 479.006 7.7C478.744 7.812 478.516 7.966 478.32 8.162C478.133 8.358 477.984 8.59133 477.872 8.862C477.769 9.12333 477.718 9.41267 477.718 9.73V9.828H481.862V9.674C481.862 9.35667 481.81 9.06733 481.708 8.806C481.614 8.54467 481.479 8.32067 481.302 8.134C481.134 7.938 480.924 7.78867 480.672 7.686C480.429 7.58333 480.158 7.532 479.86 7.532ZM485.51 14V6.776H486.63V7.952H486.686C486.761 7.77467 486.854 7.60667 486.966 7.448C487.078 7.28 487.213 7.13533 487.372 7.014C487.54 6.89267 487.736 6.79467 487.96 6.72C488.184 6.64533 488.445 6.608 488.744 6.608C489.5 6.608 490.107 6.85067 490.564 7.336C491.021 7.812 491.25 8.48867 491.25 9.366V14H490.13V9.562C490.13 8.89933 489.985 8.40933 489.696 8.092C489.407 7.76533 488.982 7.602 488.422 7.602C488.198 7.602 487.979 7.63 487.764 7.686C487.549 7.742 487.358 7.826 487.19 7.938C487.022 8.05 486.887 8.19467 486.784 8.372C486.681 8.54933 486.63 8.75467 486.63 8.988V14H485.51ZM497.223 14C496.672 14 496.266 13.846 496.005 13.538C495.753 13.23 495.627 12.8333 495.627 12.348V7.728H493.219V6.776H495.011C495.253 6.776 495.421 6.72933 495.515 6.636C495.617 6.53333 495.669 6.36067 495.669 6.118V4.228H496.747V6.776H500.037V7.728H496.747V13.048H500.037V14H497.223ZM510.162 6.776H511.156L511.982 13.02H512.108L513.34 6.776H514.572L515.804 13.02H515.93L516.756 6.776H517.722L516.616 14H515.16L514.012 7.952H513.9L512.724 14H511.268L510.162 6.776ZM522.476 14.168C521.972 14.168 521.515 14.0793 521.104 13.902C520.703 13.7247 520.358 13.4727 520.068 13.146C519.788 12.81 519.574 12.4133 519.424 11.956C519.275 11.4893 519.2 10.9667 519.2 10.388C519.2 9.81867 519.275 9.30067 519.424 8.834C519.574 8.36733 519.788 7.97067 520.068 7.644C520.358 7.308 520.703 7.05133 521.104 6.874C521.515 6.69667 521.972 6.608 522.476 6.608C522.98 6.608 523.433 6.69667 523.834 6.874C524.245 7.05133 524.59 7.308 524.87 7.644C525.16 7.97067 525.379 8.36733 525.528 8.834C525.678 9.30067 525.752 9.81867 525.752 10.388C525.752 10.9667 525.678 11.4893 525.528 11.956C525.379 12.4133 525.16 12.81 524.87 13.146C524.59 13.4727 524.245 13.7247 523.834 13.902C523.433 14.0793 522.98 14.168 522.476 14.168ZM522.476 13.202C523.102 13.202 523.606 13.0153 523.988 12.642C524.371 12.2687 524.562 11.69 524.562 10.906V9.87C524.562 9.086 524.371 8.50733 523.988 8.134C523.606 7.76067 523.102 7.574 522.476 7.574C521.851 7.574 521.347 7.76067 520.964 8.134C520.582 8.50733 520.39 9.086 520.39 9.87V10.906C520.39 11.69 520.582 12.2687 520.964 12.642C521.347 13.0153 521.851 13.202 522.476 13.202ZM527.889 13.048H530.003V7.728H527.889V6.776H531.123V8.596H531.193C531.342 8.02667 531.622 7.58333 532.033 7.266C532.453 6.93933 532.985 6.776 533.629 6.776H534.637V7.896H533.279C532.635 7.896 532.112 8.08267 531.711 8.456C531.319 8.82933 531.123 9.31933 531.123 9.926V13.048H533.923V14H527.889V13.048ZM536.815 3.64H537.935V10.178H537.991L539.251 8.988L541.659 6.776H543.031L540.035 9.604L543.381 14H541.995L539.181 10.248L537.935 11.382V14H536.815V3.64Z" fill="#9C9C9C"/>
<path d="M620.216 12.698H620.146C620.062 12.8847 619.964 13.0667 619.852 13.244C619.74 13.4213 619.595 13.58 619.418 13.72C619.25 13.8507 619.045 13.958 618.802 14.042C618.559 14.126 618.27 14.168 617.934 14.168C616.87 14.168 616.077 13.7387 615.554 12.88C615.041 12.0213 614.784 10.7893 614.784 9.184C614.784 7.504 615.069 6.23 615.638 5.362C616.207 4.494 617.085 4.06 618.27 4.06C618.727 4.06 619.124 4.12067 619.46 4.242C619.796 4.36333 620.081 4.52667 620.314 4.732C620.557 4.93733 620.757 5.17067 620.916 5.432C621.075 5.684 621.205 5.94067 621.308 6.202L620.3 6.664C620.216 6.44933 620.118 6.24867 620.006 6.062C619.903 5.866 619.773 5.698 619.614 5.558C619.465 5.40867 619.283 5.292 619.068 5.208C618.853 5.124 618.601 5.082 618.312 5.082C617.528 5.082 616.949 5.376 616.576 5.964C616.212 6.552 616.03 7.336 616.03 8.316V9.828C616.03 10.3227 616.067 10.7753 616.142 11.186C616.217 11.5873 616.338 11.9373 616.506 12.236C616.683 12.5347 616.907 12.768 617.178 12.936C617.458 13.0947 617.799 13.174 618.2 13.174C618.835 13.174 619.329 12.9827 619.684 12.6C620.039 12.2173 620.216 11.7227 620.216 11.116V10.108H618.158V9.17H621.308V14H620.216V12.698ZM626.861 14.168C626.338 14.168 625.867 14.0793 625.447 13.902C625.036 13.7247 624.681 13.4727 624.383 13.146C624.093 12.81 623.869 12.4133 623.711 11.956C623.552 11.4893 623.473 10.9713 623.473 10.402C623.473 9.82333 623.552 9.30067 623.711 8.834C623.879 8.36733 624.107 7.97067 624.397 7.644C624.686 7.308 625.031 7.05133 625.433 6.874C625.843 6.69667 626.296 6.608 626.791 6.608C627.276 6.608 627.715 6.69667 628.107 6.874C628.508 7.05133 628.849 7.29867 629.129 7.616C629.409 7.924 629.623 8.29267 629.773 8.722C629.922 9.15133 629.997 9.62267 629.997 10.136V10.668H624.649V11.004C624.649 11.3213 624.7 11.6153 624.803 11.886C624.905 12.1567 625.05 12.39 625.237 12.586C625.433 12.782 625.666 12.936 625.937 13.048C626.217 13.1507 626.525 13.202 626.861 13.202C627.346 13.202 627.766 13.09 628.121 12.866C628.475 12.642 628.746 12.334 628.933 11.942L629.759 12.502C629.544 12.9873 629.185 13.3887 628.681 13.706C628.186 14.014 627.579 14.168 626.861 14.168ZM626.791 7.532C626.483 7.532 626.198 7.588 625.937 7.7C625.675 7.812 625.447 7.966 625.251 8.162C625.064 8.358 624.915 8.59133 624.803 8.862C624.7 9.12333 624.649 9.41267 624.649 9.73V9.828H628.793V9.674C628.793 9.35667 628.741 9.06733 628.639 8.806C628.545 8.54467 628.41 8.32067 628.233 8.134C628.065 7.938 627.855 7.78867 627.603 7.686C627.36 7.58333 627.089 7.532 626.791 7.532ZM635.619 14C635.068 14 634.662 13.846 634.401 13.538C634.149 13.23 634.023 12.8333 634.023 12.348V7.728H631.615V6.776H633.407C633.65 6.776 633.818 6.72933 633.911 6.636C634.014 6.53333 634.065 6.36067 634.065 6.118V4.228H635.143V6.776H638.433V7.728H635.143V13.048H638.433V14H635.619ZM649.314 14V13.062H651.75V5.166H649.314V4.228H655.362V5.166H652.926V13.062H655.362V14H649.314ZM658.045 14V6.776H659.165V7.952H659.221C659.295 7.77467 659.389 7.60667 659.501 7.448C659.613 7.28 659.748 7.13533 659.907 7.014C660.075 6.89267 660.271 6.79467 660.495 6.72C660.719 6.64533 660.98 6.608 661.279 6.608C662.035 6.608 662.641 6.85067 663.099 7.336C663.556 7.812 663.785 8.48867 663.785 9.366V14H662.665V9.562C662.665 8.89933 662.52 8.40933 662.231 8.092C661.941 7.76533 661.517 7.602 660.957 7.602C660.733 7.602 660.513 7.63 660.299 7.686C660.084 7.742 659.893 7.826 659.725 7.938C659.557 8.05 659.421 8.19467 659.319 8.372C659.216 8.54933 659.165 8.75467 659.165 8.988V14H658.045ZM678.53 5.25V14H677.354V5.25H674.092V4.228H681.792V5.25H678.53ZM686.476 14.168C685.972 14.168 685.515 14.0793 685.104 13.902C684.703 13.7247 684.358 13.4727 684.068 13.146C683.788 12.81 683.574 12.4133 683.424 11.956C683.275 11.4893 683.2 10.9667 683.2 10.388C683.2 9.81867 683.275 9.30067 683.424 8.834C683.574 8.36733 683.788 7.97067 684.068 7.644C684.358 7.308 684.703 7.05133 685.104 6.874C685.515 6.69667 685.972 6.608 686.476 6.608C686.98 6.608 687.433 6.69667 687.834 6.874C688.245 7.05133 688.59 7.308 688.87 7.644C689.16 7.97067 689.379 8.36733 689.528 8.834C689.678 9.30067 689.752 9.81867 689.752 10.388C689.752 10.9667 689.678 11.4893 689.528 11.956C689.379 12.4133 689.16 12.81 688.87 13.146C688.59 13.4727 688.245 13.7247 687.834 13.902C687.433 14.0793 686.98 14.168 686.476 14.168ZM686.476 13.202C687.102 13.202 687.606 13.0153 687.988 12.642C688.371 12.2687 688.562 11.69 688.562 10.906V9.87C688.562 9.086 688.371 8.50733 687.988 8.134C687.606 7.76067 687.102 7.574 686.476 7.574C685.851 7.574 685.347 7.76067 684.964 8.134C684.582 8.50733 684.39 9.086 684.39 9.87V10.906C684.39 11.69 684.582 12.2687 684.964 12.642C685.347 13.0153 685.851 13.202 686.476 13.202ZM696.719 12.824H696.663C696.588 13.0013 696.495 13.174 696.383 13.342C696.271 13.5007 696.131 13.6407 695.963 13.762C695.804 13.8833 695.613 13.9813 695.389 14.056C695.165 14.1307 694.903 14.168 694.605 14.168C693.849 14.168 693.242 13.93 692.785 13.454C692.327 12.9687 692.099 12.2873 692.099 11.41V6.776H693.219V11.214C693.219 11.8767 693.363 12.3713 693.653 12.698C693.942 13.0153 694.367 13.174 694.927 13.174C695.151 13.174 695.37 13.146 695.585 13.09C695.799 13.034 695.991 12.95 696.159 12.838C696.327 12.726 696.462 12.586 696.565 12.418C696.667 12.2407 696.719 12.0307 696.719 11.788V6.776H697.839V14H696.719V12.824ZM703.797 14.168C703.275 14.168 702.808 14.0793 702.397 13.902C701.996 13.7153 701.655 13.4587 701.375 13.132C701.095 12.8053 700.881 12.4087 700.731 11.942C700.591 11.4753 700.521 10.9573 700.521 10.388C700.521 9.81867 700.596 9.30067 700.745 8.834C700.895 8.36733 701.109 7.97067 701.389 7.644C701.669 7.308 702.01 7.05133 702.411 6.874C702.813 6.69667 703.27 6.608 703.783 6.608C704.483 6.608 705.053 6.762 705.491 7.07C705.93 7.378 706.252 7.77933 706.457 8.274L705.561 8.75C705.431 8.37667 705.211 8.08733 704.903 7.882C704.605 7.67667 704.231 7.574 703.783 7.574C703.457 7.574 703.163 7.63 702.901 7.742C702.649 7.84467 702.435 7.994 702.257 8.19C702.08 8.386 701.945 8.61933 701.851 8.89C701.767 9.16067 701.725 9.45467 701.725 9.772V11.004C701.725 11.3213 701.767 11.6153 701.851 11.886C701.945 12.1567 702.08 12.39 702.257 12.586C702.435 12.782 702.654 12.936 702.915 13.048C703.177 13.1507 703.475 13.202 703.811 13.202C704.297 13.202 704.698 13.09 705.015 12.866C705.333 12.642 705.585 12.334 705.771 11.942L706.569 12.488C706.355 12.9733 706.019 13.3747 705.561 13.692C705.113 14.0093 704.525 14.168 703.797 14.168ZM709.252 3.64H710.372V7.952H710.428C710.503 7.77467 710.596 7.60667 710.708 7.448C710.82 7.28 710.955 7.13533 711.114 7.014C711.282 6.89267 711.478 6.79467 711.702 6.72C711.926 6.64533 712.187 6.608 712.486 6.608C713.242 6.608 713.849 6.85067 714.306 7.336C714.763 7.812 714.992 8.48867 714.992 9.366V14H713.872V9.562C713.872 8.89933 713.727 8.40933 713.438 8.092C713.149 7.76533 712.724 7.602 712.164 7.602C711.94 7.602 711.721 7.63 711.506 7.686C711.291 7.742 711.1 7.826 710.932 7.938C710.764 8.05 710.629 8.19467 710.526 8.372C710.423 8.54933 710.372 8.75467 710.372 8.988V14H709.252V3.64Z" fill="#9C9C9C"/>
</svg>
